<?xml version="1.0" encoding="utf-8" standalone="no"?>
<!DOCTYPE svg PUBLIC "-//W3C//DTD SVG 1.1//EN"
  "http://www.w3.org/Graphics/SVG/1.1/DTD/svg11.dtd">
<svg xmlns:xlink="http://www.w3.org/1999/xlink" width="499.219977pt" height="289.354541pt" viewBox="0 0 499.219977 289.354541" xmlns="http://www.w3.org/2000/svg" version="1.1">
 <metadata>
  <rdf:RDF xmlns:dc="http://purl.org/dc/elements/1.1/" xmlns:cc="http://creativecommons.org/ns#" xmlns:rdf="http://www.w3.org/1999/02/22-rdf-syntax-ns#">
   <cc:Work>
    <dc:type rdf:resource="http://purl.org/dc/dcmitype/StillImage"/>
    <dc:date>2026-08-07T19:26:01.125254</dc:date>
    <dc:format>image/svg+xml</dc:format>
    <dc:creator>
     <cc:Agent>
      <dc:title>Matplotlib v3.10.8, https://matplotlib.org/</dc:title>
     </cc:Agent>
    </dc:creator>
   </cc:Work>
  </rdf:RDF>
 </metadata>
 <defs>
  <style type="text/css">*{stroke-linejoin: round; stroke-linecap: butt}</style>
 </defs>
 <g id="figure_1">
  <g id="patch_1">
   <path d="M 0 289.354541 
L 499.219977 289.354541 
L 499.219977 0 
L 0 0 
z
" style="fill: #ffffff"/>
  </g>
  <g id="axes_1">
   <g id="patch_2">
    <path d="M 71.558437 276.919854 
L 473.58206 276.919854 
L 473.58206 14.998594 
L 71.558437 14.998594 
z
" style="fill: #ffffff"/>
   </g>
   <g id="line2d_1">
    <path d="M 89.832239 71.549775 
L 272.570249 71.549775 
L 455.308259 71.549775 
" clip-path="url(#pb421c96e1d)" style="fill: none; stroke: #d9dde1; stroke-width: 1.4; stroke-linecap: square"/>
   </g>
   <g id="line2d_2">
    <path d="M 89.832239 220.368672 
L 272.570249 220.368672 
L 455.308259 220.368672 
" clip-path="url(#pb421c96e1d)" style="fill: none; stroke: #d9dde1; stroke-width: 1.4; stroke-linecap: square"/>
   </g>
   <g id="matplotlib.axis_1">
    <g id="xtick_1">
     <g id="line2d_3"/>
     <g id="text_1">
      <text style="font-size: 7px; font-family: 'Arial', 'Helvetica', 'DejaVu Sans', 'Liberation Sans', sans-serif; text-anchor: middle; fill: #202124" x="89.832239" y="285.73876" transform="rotate(-0 89.832239 285.73876)">Cycle 1</text>
     </g>
    </g>
    <g id="xtick_2">
     <g id="line2d_4"/>
     <g id="text_2">
      <text style="font-size: 7px; font-family: 'Arial', 'Helvetica', 'DejaVu Sans', 'Liberation Sans', sans-serif; text-anchor: middle; fill: #202124" x="272.570249" y="285.73876" transform="rotate(-0 272.570249 285.73876)">Cycle 2</text>
     </g>
    </g>
    <g id="xtick_3">
     <g id="line2d_5"/>
     <g id="text_3">
      <text style="font-size: 7px; font-family: 'Arial', 'Helvetica', 'DejaVu Sans', 'Liberation Sans', sans-serif; text-anchor: middle; fill: #202124" x="455.308259" y="285.73876" transform="rotate(-0 455.308259 285.73876)">Independent replication</text>
     </g>
    </g>
   </g>
   <g id="matplotlib.axis_2">
    <g id="ytick_1">
     <g id="line2d_6"/>
     <g id="text_4">
      <text style="font-size: 7px; font-family: 'Arial', 'Helvetica', 'DejaVu Sans', 'Liberation Sans', sans-serif; text-anchor: end; fill: #202124" x="68.058437" y="223.028126" transform="rotate(-0 68.058437 223.028126)">Real evidence</text>
     </g>
    </g>
    <g id="ytick_2">
     <g id="line2d_7"/>
     <g id="text_5">
      <text style="font-size: 7px; font-family: 'Arial', 'Helvetica', 'DejaVu Sans', 'Liberation Sans', sans-serif; text-anchor: end; fill: #202124" x="68.058437" y="74.209228" transform="rotate(-0 68.058437 74.209228)">Software rehearsal</text>
     </g>
    </g>
   </g>
   <g id="PathCollection_1">
    <defs>
     <path id="m5e429d2f2e" d="M 0 4.873397 
C 1.29244 4.873397 2.532119 4.359905 3.446012 3.446012 
C 4.359905 2.532119 4.873397 1.29244 4.873397 0 
C 4.873397 -1.29244 4.359905 -2.532119 3.446012 -3.446012 
C 2.532119 -4.359905 1.29244 -4.873397 0 -4.873397 
C -1.29244 -4.873397 -2.532119 -4.359905 -3.446012 -3.446012 
C -4.359905 -2.532119 -4.873397 -1.29244 -4.873397 0 
C -4.873397 1.29244 -4.359905 2.532119 -3.446012 3.446012 
C -2.532119 4.359905 -1.29244 4.873397 0 4.873397 
z
" style="stroke: #2d7f78; stroke-width: 1.2"/>
    </defs>
    <g clip-path="url(#pb421c96e1d)">
     <use xlink:href="#m5e429d2f2e" x="89.832239" y="71.549775" style="fill: #2d7f78; stroke: #2d7f78; stroke-width: 1.2"/>
    </g>
   </g>
   <g id="PathCollection_2">
    <defs>
     <path id="m6dc8ae77b8" d="M 0 4.873397 
C 1.29244 4.873397 2.532119 4.359905 3.446012 3.446012 
C 4.359905 2.532119 4.873397 1.29244 4.873397 0 
C 4.873397 -1.29244 4.359905 -2.532119 3.446012 -3.446012 
C 2.532119 -4.359905 1.29244 -4.873397 0 -4.873397 
C -1.29244 -4.873397 -2.532119 -4.359905 -3.446012 -3.446012 
C -4.359905 -2.532119 -4.873397 -1.29244 -4.873397 0 
C -4.873397 1.29244 -4.359905 2.532119 -3.446012 3.446012 
C -2.532119 4.359905 -1.29244 4.873397 0 4.873397 
z
" style="stroke: #b64c4c; stroke-width: 1.2"/>
    </defs>
    <g clip-path="url(#pb421c96e1d)">
     <use xlink:href="#m6dc8ae77b8" x="89.832239" y="220.368672" style="fill: #ffffff; stroke: #b64c4c; stroke-width: 1.2"/>
    </g>
   </g>
   <g id="text_6">
    <text style="font-size: 6.3px; font-family: 'Arial', 'Helvetica', 'DejaVu Sans', 'Liberation Sans', sans-serif; text-anchor: middle; fill: #687078" x="89.832239" y="46.428548" transform="rotate(-0 89.832239 46.428548)">complete</text>
   </g>
   <g id="text_7">
    <text style="font-size: 6.3px; font-family: 'Arial', 'Helvetica', 'DejaVu Sans', 'Liberation Sans', sans-serif; text-anchor: middle; fill: #b64c4c" x="89.832239" y="248.966712" transform="rotate(-0 89.832239 248.966712)">pending</text>
   </g>
   <g id="PathCollection_3">
    <g clip-path="url(#pb421c96e1d)">
     <use xlink:href="#m5e429d2f2e" x="272.570249" y="71.549775" style="fill: #2d7f78; stroke: #2d7f78; stroke-width: 1.2"/>
    </g>
   </g>
   <g id="PathCollection_4">
    <g clip-path="url(#pb421c96e1d)">
     <use xlink:href="#m6dc8ae77b8" x="272.570249" y="220.368672" style="fill: #ffffff; stroke: #b64c4c; stroke-width: 1.2"/>
    </g>
   </g>
   <g id="text_8">
    <text style="font-size: 6.3px; font-family: 'Arial', 'Helvetica', 'DejaVu Sans', 'Liberation Sans', sans-serif; text-anchor: middle; fill: #687078" x="272.570249" y="46.428548" transform="rotate(-0 272.570249 46.428548)">complete</text>
   </g>
   <g id="text_9">
    <text style="font-size: 6.3px; font-family: 'Arial', 'Helvetica', 'DejaVu Sans', 'Liberation Sans', sans-serif; text-anchor: middle; fill: #b64c4c" x="272.570249" y="248.966712" transform="rotate(-0 272.570249 248.966712)">pending</text>
   </g>
   <g id="PathCollection_5">
    <defs>
     <path id="m7ea49303ee" d="M 0 4.873397 
C 1.29244 4.873397 2.532119 4.359905 3.446012 3.446012 
C 4.359905 2.532119 4.873397 1.29244 4.873397 0 
C 4.873397 -1.29244 4.359905 -2.532119 3.446012 -3.446012 
C 2.532119 -4.359905 1.29244 -4.873397 0 -4.873397 
C -1.29244 -4.873397 -2.532119 -4.359905 -3.446012 -3.446012 
C -4.359905 -2.532119 -4.873397 -1.29244 -4.873397 0 
C -4.873397 1.29244 -4.359905 2.532119 -3.446012 3.446012 
C -2.532119 4.359905 -1.29244 4.873397 0 4.873397 
z
" style="stroke: #2d7f78; stroke-width: 1.2"/>
    </defs>
    <g clip-path="url(#pb421c96e1d)">
     <use xlink:href="#m7ea49303ee" x="455.308259" y="71.549775" style="fill: #ffffff; stroke: #2d7f78; stroke-width: 1.2"/>
    </g>
   </g>
   <g id="PathCollection_6">
    <g clip-path="url(#pb421c96e1d)">
     <use xlink:href="#m6dc8ae77b8" x="455.308259" y="220.368672" style="fill: #ffffff; stroke: #b64c4c; stroke-width: 1.2"/>
    </g>
   </g>
   <g id="text_10">
    <text style="font-size: 6.3px; font-family: 'Arial', 'Helvetica', 'DejaVu Sans', 'Liberation Sans', sans-serif; text-anchor: middle; fill: #687078" x="455.308259" y="46.428548" transform="rotate(-0 455.308259 46.428548)">not applicable</text>
   </g>
   <g id="text_11">
    <text style="font-size: 6.3px; font-family: 'Arial', 'Helvetica', 'DejaVu Sans', 'Liberation Sans', sans-serif; text-anchor: middle; fill: #b64c4c" x="455.308259" y="248.966712" transform="rotate(-0 455.308259 248.966712)">pending</text>
   </g>
   <g id="text_12">
    <text style="font-weight: 600; font-size: 9px; font-family: 'Arial', 'Helvetica', 'DejaVu Sans', 'Liberation Sans', sans-serif; text-anchor: start" x="71.558437" y="8.998594" transform="rotate(-0 71.558437 8.998594)">Prospective validation sequence</text>
   </g>
  </g>
 </g>
 <defs>
  <clipPath id="pb421c96e1d">
   <rect x="71.558437" y="14.998594" width="402.023622" height="261.92126"/>
  </clipPath>
 </defs>
</svg>
